<svg xmlns="http://www.w3.org/2000/svg" width="897.197" height="681.145" viewBox="0 0 897.197 681.145"><path d="M476.582,624.726C283.472,610.03,53.18,460.4,64.9,306.335S299.669,8.844,492.779,23.54s304.27,302.621,292.546,456.688S669.691,639.422,476.582,624.726Z" transform="translate(-42.509 -22.5)" fill="#afbed3"/><ellipse cx="403.11" cy="24.696" rx="403.11" ry="24.696" transform="translate(47.158 577.579)" fill="#3f3d56"/><ellipse cx="343.361" cy="16.332" rx="343.361" ry="16.332" transform="translate(106.907 585.546)" opacity="0.1"/><ellipse cx="169.047" cy="14.738" rx="169.047" ry="14.738" transform="translate(0 651.669)" fill="#3f3d56"/><ellipse cx="143.99" cy="9.746" rx="143.99" ry="9.746" transform="translate(25.057 656.423)" opacity="0.1"/><rect width="599.089" height="470.03" transform="translate(156.3 129.059)" fill="#3f3d56"/><path d="M562.36,264.213H414.566a1.794,1.794,0,0,1,0-3.587H562.36a1.794,1.794,0,1,1,0,3.587Z" transform="translate(-113.332 -70.92)" fill="#f2f2f2"/><path d="M743.831,288.979H511.377a1.794,1.794,0,1,1,0-3.587H743.831a1.794,1.794,0,1,1,0,3.587Z" transform="translate(-133.018 -75.956)" fill="#f2f2f2"/><path d="M563.261,313.745H415.466a1.794,1.794,0,0,1,0-3.587H563.261a1.794,1.794,0,1,1,0,3.587Z" transform="translate(-113.515 -80.992)" fill="#f2f2f2"/><path d="M765.439,314.2H617.644a1.794,1.794,0,0,1,0-3.587H765.439a1.794,1.794,0,1,1,0,3.587Z" transform="translate(-154.626 -81.084)" fill="#f2f2f2"/><path d="M563.711,338.51H415.916a1.794,1.794,0,1,1,0-3.587H563.711a1.794,1.794,0,0,1,0,3.587Z" transform="translate(-113.607 -86.028)" fill="#f2f2f2"/><path d="M564.161,363.276H416.367a1.794,1.794,0,1,1,0-3.587H564.161a1.794,1.794,0,0,1,0,3.587Z" transform="translate(-113.698 -91.064)" fill="#f2f2f2"/><path d="M675.284,264.663h-42.33a1.794,1.794,0,1,1,0-3.587h42.33a1.794,1.794,0,0,1,0,3.587Z" transform="translate(-157.739 -71.012)" fill="#f2f2f2"/><path d="M675.284,338.51h-42.33a1.794,1.794,0,1,1,0-3.587h42.33a1.794,1.794,0,1,1,0,3.587Z" transform="translate(-157.739 -86.028)" fill="#f2f2f2"/><path d="M675.284,362.826h-42.33a1.794,1.794,0,0,1,0-3.587h42.33a1.794,1.794,0,0,1,0,3.587Z" transform="translate(-157.739 -90.972)" fill="#f2f2f2"/><path d="M764.441,362.826h-42.33a1.794,1.794,0,0,1,0-3.587h42.33a1.794,1.794,0,0,1,0,3.587Z" transform="translate(-175.868 -90.972)" fill="#f2f2f2"/><path d="M456.445,288.979h-42.33a1.794,1.794,0,1,1,0-3.587h42.33a1.794,1.794,0,1,1,0,3.587Z" transform="translate(-113.241 -75.956)" fill="#f2f2f2"/><path d="M562.585,628.945H414.791a1.794,1.794,0,1,1,0-3.587H562.585a1.794,1.794,0,1,1,0,3.587Z" transform="translate(-113.378 -145.085)" fill="#f2f2f2"/><path d="M561.685,678.476H413.89a1.794,1.794,0,0,1,0-3.587H561.685a1.794,1.794,0,1,1,0,3.587Z" transform="translate(-113.195 -155.156)" fill="#f2f2f2"/><path d="M562.135,703.242H414.34a1.794,1.794,0,1,1,0-3.587H562.135a1.794,1.794,0,0,1,0,3.587Z" transform="translate(-113.286 -160.192)" fill="#f2f2f2"/><path d="M668.3,678.926H625.975a1.794,1.794,0,1,1,0-3.587H668.3a1.794,1.794,0,0,1,0,3.587Z" transform="translate(-156.32 -155.248)" fill="#f2f2f2"/><path d="M668.3,703.242H625.975a1.794,1.794,0,1,1,0-3.587H668.3a1.794,1.794,0,1,1,0,3.587Z" transform="translate(-156.32 -160.192)" fill="#f2f2f2"/><path d="M757.461,678.926h-42.33a1.794,1.794,0,0,1,0-3.587h42.33a1.794,1.794,0,0,1,0,3.587Z" transform="translate(-174.449 -155.248)" fill="#f2f2f2"/><path d="M744.056,653.71H511.6a1.794,1.794,0,0,1,0-3.587H744.056a1.794,1.794,0,1,1,0,3.587Z" transform="translate(-133.063 -150.12)" fill="#f2f2f2"/><path d="M456.67,653.71H414.34a1.794,1.794,0,1,1,0-3.587h42.33a1.794,1.794,0,1,1,0,3.587Z" transform="translate(-113.286 -150.12)" fill="#f2f2f2"/><path d="M744.056,728.458H511.6a1.794,1.794,0,1,1,0-3.587H744.056a1.794,1.794,0,1,1,0,3.587Z" transform="translate(-133.063 -165.32)" fill="#f2f2f2"/><path d="M456.67,728.458H414.34a1.794,1.794,0,1,1,0-3.587h42.33a1.794,1.794,0,1,1,0,3.587Z" transform="translate(-113.286 -165.32)" fill="#f2f2f2"/><path d="M504.41,401.13l-57.4,56.678,57.4,56.678,12.914-12.914-43.405-43.406L517.683,414.4Z" transform="translate(-90.896 -81.565)" fill="#3480e3"/><path d="M621.939,401.13l57.4,56.678-57.4,56.678-12.914-12.914,43.406-43.406L608.667,414.4Z" transform="translate(-123.766 -81.565)" fill="#3480e3"/><circle cx="7.17" cy="7.17" r="7.17" transform="translate(165.063 133.839)" fill="#3480e3"/><circle cx="7.17" cy="7.17" r="7.17" transform="translate(184.183 133.839)" fill="#3480e3"/><circle cx="7.17" cy="7.17" r="7.17" transform="translate(203.303 133.839)" fill="#3480e3"/><rect width="599.089" height="2.39" transform="translate(156.3 152.959)" opacity="0.1"/><path d="M1128.664,600.491c0,50.8-30.2,68.543-67.458,68.543s-67.458-17.739-67.458-68.543,67.458-115.435,67.458-115.435S1128.664,549.686,1128.664,600.491Z" transform="translate(-231.467 -116.556)" fill="#d8dfe8"/><path d="M1031.51,638.761l.693-42.519,28.751-52.6-28.64,45.932.311-19.118,19.813-38.056-19.733,33h0l.558-34.385,21.223-30.3L1033.351,525.6l.35-63.049-2.191,83.465.175-3.443-21.574-33.022,21.231,39.632-2.016,38.4-.056-1.02L1004.4,551.819l24.792,38.352-.247,4.8-.048.072.024.394-5.1,97.428h6.811l.813-50.323,24.736-38.259Z" transform="translate(-204.234 -94.056)" fill="#3f3d56"/><path d="M153.615,772.4a34.356,34.356,0,0,1-6.515,2.79c-4.046,1.105-8.371.7-12.458,1.643-1.673.386-3.494,1.194-4.027,2.827a5.938,5.938,0,0,0,.441,3.683c4.516,13.24,7.238,27.3,14.44,39.292a59.464,59.464,0,0,0,11.147,13.533c1.637,1.476,3.493,2.919,5.684,3.151a5.774,5.774,0,0,0,5.872-8.112c-.646-1.435-1.846-2.546-2.62-3.916a14.943,14.943,0,0,1-1.449-5.569c-.712-5.663-1.4-11.582.565-16.941,1.316-3.595,3.73-6.659,5.741-9.916s3.682-6.988,3.234-10.79a18.74,18.74,0,0,0-2.908-7.213c-1.34-2.249-3.987-8.292-6.678-9.042C161.291,767.038,156.051,771.149,153.615,772.4Z" transform="translate(-55.927 -174.032)" fill="#2f2e41"/><path d="M250.578,826.98a11.168,11.168,0,0,1-.528,3.78c-.842,2.225-2.932,3.749-4.012,5.869-1.5,2.948-.821,6.512.174,9.667.624,1.978,1.442,4.037,3.117,5.26a10.272,10.272,0,0,0,4.743,1.519c14.369,1.989,28.965.848,43.465,1.264,2.643.076,5.441.168,7.748-1.123s3.733-4.538,2.164-6.666c-1.409-1.911-4.195-1.893-6.566-2.006a27.016,27.016,0,0,1-16.661-6.863,12.036,12.036,0,0,1-2.337-2.69,16.531,16.531,0,0,1-1.222-2.8,124.912,124.912,0,0,0-7.237-16.028,8.49,8.49,0,0,0-3.112-3.725,8.222,8.222,0,0,0-3.377-.737c-3.614-.234-12.972-1.464-15.767,1.346C248.587,815.642,250.635,823.682,250.578,826.98Z" transform="translate(-79.25 -182.88)" fill="#2f2e41"/><circle cx="23.083" cy="23.083" r="23.083" transform="translate(170.482 277.035)" fill="#fbbebe"/><path d="M251.9,420.413a17.351,17.351,0,0,1-7.091,9.106l31.926,6.512a33.821,33.821,0,0,1-.448-14.235,8.205,8.205,0,0,0,.191-3.513c-.6-2.316-3.208-3.431-5.541-3.963-5.827-1.328-10.98-2.041-16.394-4.614C252.888,412.54,253.12,417.146,251.9,420.413Z" transform="translate(-79.179 -101.234)" fill="#fbbebe"/><path d="M237.093,423.16a24.966,24.966,0,0,1,21.759.569c4.093,2.157,7.482,5.413,10.812,8.625,3.069,2.961,6.343,6.351,6.561,10.61.106,2.063-.538,4.081-.864,6.121a20.527,20.527,0,0,0,10.978,21.087c2.536,4.225,3.06,9.344,3.1,14.271.147,18.67-5.743,37.571-1.538,55.763.987,4.271,2.519,8.408,3.372,12.708,1.1,5.569,1.05,11.3,1.628,16.945a75.894,75.894,0,0,0,4.074,17.921c-1.389,2.21-4.281,3.057-6.885,2.878a19.448,19.448,0,0,1-7.363-2.5c-11.251-5.758-21.557-13.35-33.21-18.243-7.71-3.237-15.923-5.254-23.4-8.993s-14.435-9.673-16.722-17.716a41.469,41.469,0,0,1-1.1-10.757c-.227-15.227-.439-30.621,2.876-45.484,2.923-13.108,8.557-25.648,9.786-39.021.4-4.353.409-9.013,2.841-12.646C227.228,430.165,234.651,428.836,237.093,423.16Z" transform="translate(-71.729 -103.518)" fill="#2f2e41"/><path d="M257,390.642c1.36-1.774,3.983-2.016,6.156-1.491s4.177,1.645,6.371,2.07a3.725,3.725,0,0,0,2.982-.419,4.337,4.337,0,0,0,1.287-2.844,54.3,54.3,0,0,0,.534-13.846,4.1,4.1,0,0,1,.127-1.942c.543-1.309,2.2-1.621,3.555-2.041a10.608,10.608,0,0,0,7.18-10.861,4.319,4.319,0,0,0-1.32-2.98,5.429,5.429,0,0,0-3.454-.819q-9.307-.075-18.615,0c-2.3.02-4.708.076-6.7,1.221a32.552,32.552,0,0,0-3.888,3.276c-3.447,2.781-8.108,3.347-12.3,4.773a12.2,12.2,0,0,0-5.391,3.215,5.68,5.68,0,0,0-1.189,5.889,20.912,20.912,0,0,0,1.5,2.313c2.473,3.955.827,9.084,1.2,13.734.461,5.806,9.054,15.225,14.881,16.6C259.32,408.712,253.885,394.454,257,390.642Z" transform="translate(-76.562 -90.198)" fill="#2f2e41"/><path d="M245.9,708.852c.594,4.24,1.355,8.494,1.151,12.77-.284,5.97-2.437,11.722-2.835,17.685-.3,4.454.39,8.956-.228,13.377-.4,2.831-1.319,5.56-1.891,8.36a34.571,34.571,0,0,0,5.555,26.5,4.339,4.339,0,0,0,1.612,1.562,4.553,4.553,0,0,0,2,.264,143.376,143.376,0,0,0,20.052-1.822,1.923,1.923,0,0,0,1.288-.568,1.8,1.8,0,0,0,.28-.76c1.23-6.322-1.575-12.662-2.288-19.063-.762-6.835.878-13.684,2.506-20.366a90.454,90.454,0,0,1,2.762-9.741c.787-2.149,1.737-4.239,2.419-6.423a48.963,48.963,0,0,0,1.754-10.518q.71-8.425.753-16.888a70.869,70.869,0,0,0-1.327-15.941c-1.5-6.643-4.56-12.811-7.6-18.9a11.973,11.973,0,0,0-4.476,2.127,99.883,99.883,0,0,1-12.229,6.756c-2.841,1.32-8.382,2.257-10.186,5.008-1.778,2.712-.631,8.246-.5,11.237Q244.828,701.2,245.9,708.852Z" transform="translate(-78.493 -153.832)" fill="#2f2e41"/><path d="M245.9,708.852c.594,4.24,1.355,8.494,1.151,12.77-.284,5.97-2.437,11.722-2.835,17.685-.3,4.454.39,8.956-.228,13.377-.4,2.831-1.319,5.56-1.891,8.36a34.571,34.571,0,0,0,5.555,26.5,4.339,4.339,0,0,0,1.612,1.562,4.553,4.553,0,0,0,2,.264,143.376,143.376,0,0,0,20.052-1.822,1.923,1.923,0,0,0,1.288-.568,1.8,1.8,0,0,0,.28-.76c1.23-6.322-1.575-12.662-2.288-19.063-.762-6.835.878-13.684,2.506-20.366a90.454,90.454,0,0,1,2.762-9.741c.787-2.149,1.737-4.239,2.419-6.423a48.963,48.963,0,0,0,1.754-10.518q.71-8.425.753-16.888a70.869,70.869,0,0,0-1.327-15.941c-1.5-6.643-4.56-12.811-7.6-18.9a11.973,11.973,0,0,0-4.476,2.127,99.883,99.883,0,0,1-12.229,6.756c-2.841,1.32-8.382,2.257-10.186,5.008-1.778,2.712-.631,8.246-.5,11.237Q244.828,701.2,245.9,708.852Z" transform="translate(-78.493 -153.832)" opacity="0.1"/><path d="M200.128,605.518c-3.065,8.253,1.441,17.171,5.355,25.057,9.644,19.428,16.342,40.158,23,60.8.5,1.546,1,3.233.441,4.76a6.234,6.234,0,0,1-2.248,2.666c-4.593,3.489-10.442,4.731-15.913,6.556a71.844,71.844,0,0,0-15.091,7.074c-3.965,2.457-7.679,5.293-11.386,8.124l-11.8,9.012a7.889,7.889,0,0,0-1.972,1.909c-1.138,1.786-.672,4.117-.105,6.157a104.709,104.709,0,0,0,5.777,15.767,5.506,5.506,0,0,0,2.1,2.746c1.842.99,4.095-.323,5.5-1.87s2.623-3.473,4.606-4.137,4.16.14,6.228-.15c3.345-.47,5.566-3.551,7.977-5.916,9.851-9.664,26.3-8.963,37.134-17.508a47.177,47.177,0,0,1,4.964-3.878c1.832-1.083,3.909-1.677,5.81-2.634,5.781-2.911,9.415-8.929,11.362-15.1s2.5-12.689,3.9-19.009a82.649,82.649,0,0,0,2-9.83,52.653,52.653,0,0,0-.2-9.294l-3.91-48.37c-.318-3.938-.637-7.881-1.255-11.783-11.613.415-23.217.882-34.836,1.02C218.316,607.793,208.9,608.44,200.128,605.518Z" transform="translate(-63.93 -141.05)" fill="#2f2e41"/><path d="M202.22,614.879c1.575,2.533,5.409,2.481,8.05,1.092s4.691-3.722,7.338-5.1c3.556-1.85,7.764-1.781,11.772-1.668,6.344.179,12.766.37,18.87,2.109,6.313,1.8,12.46,5.261,18.988,4.57a3.906,3.906,0,0,0,3-1.406,4.417,4.417,0,0,0,.494-2.259l.213-5.7a5.15,5.15,0,0,0-.454-2.888,4.845,4.845,0,0,0-2.164-1.657c-9.292-4.5-19.888-5.336-30.205-5.689q-7.867-.27-15.74-.222c-4.454.027-9.8-.617-14.132.573C202.433,598.228,199.271,610.137,202.22,614.879Z" transform="translate(-70.291 -139.096)" fill="#2f2e41"/><path d="M260.234,430.092c-12.175-.108-23.208-8.144-35.381-8.34a9.174,9.174,0,0,0-4.3.741c-1.7.854-2.812,2.507-4.1,3.9-3.6,3.9-8.812,5.979-12.51,9.784-3.467,3.567-5.4,8.882-4.027,13.665s6.535,8.451,11.376,7.3a29.318,29.318,0,0,1,11.422-15.519,58.066,58.066,0,0,1,8.927-4.686c5.471-2.479,11.59-5.005,17.3-3.147a24.408,24.408,0,0,1,5.9,3.219l9.523,6.4C263.262,439.034,262.264,434.125,260.234,430.092Z" transform="translate(-69.961 -103.679)" fill="#3480e3"/><path d="M208.228,455.443c-1.617,2.017.712,4.939.356,7.5-.237,1.7-1.637,3-2.219,4.615-.6,1.673-.284,3.527-.513,5.291a22.7,22.7,0,0,1-1.016,3.768,67.7,67.7,0,0,0-2.14,11.174L200.565,503.7a60.292,60.292,0,0,0-.674,7.232,21.6,21.6,0,0,1-.36,5.407,39.926,39.926,0,0,1-2.22,4.92c-.7,1.659-1.029,3.666-.079,5.2a9.085,9.085,0,0,0-1.9,11.34,6.292,6.292,0,0,1,.98,1.8,4.637,4.637,0,0,1-.432,2.661l-2.155,5.741c-.552,1.47-.726,3.707.807,4.042a13.547,13.547,0,0,0-2.909,4.594,5.47,5.47,0,0,0,.775,5.183,6.6,6.6,0,0,1,1.35,1.638,4.36,4.36,0,0,1-.156,2.584,9.485,9.485,0,0,0,1.173,7.436,6.669,6.669,0,0,0,6.707,2.875c4.31-.972,8.184-2.507,12.529-1.709,9.358,1.717,18.745,3.441,27.808,6.335,10.344,3.3,20.36,8.145,31.17,9.162a3.026,3.026,0,0,0,2.085-.324,3.131,3.131,0,0,0,.964-1.982l3.341-15.666a161.225,161.225,0,0,0,3.071-17.549c.38-3.809.489-7.639.6-11.466L283.9,512.7a30.431,30.431,0,0,0-1.753-13.24l-4.953-15.812c-2.827-9.024-9.311-17.026-11.62-26.2-1.461-5.8-2.541-12.032-6.459-16.555-5.586-6.449-15.252-7.452-23.712-6.343a28.328,28.328,0,0,0-10.982,3.347c-3.823,2.292-6.639,5.9-9.363,9.43C212.812,450.24,210.526,452.577,208.228,455.443Z" transform="translate(-68.296 -106.208)" fill="#3480e3"/><path d="M237.145,568.28c.7,3.005,2.161,5.777,3.057,8.729,1.5,4.946,1.374,10.273,2.872,15.221.629,2.076,1.54,4.07,1.991,6.192,1.052,4.948-.484,10.066-2.393,14.751s-4.233,9.3-4.853,14.324c-.436,3.536.191,7.529,2.916,9.823,2.829,2.382,6.941,2.221,10.627,1.9a11.168,11.168,0,0,0,3.857-.8c2.818-1.333,4.005-4.668,4.664-7.716,2.208-10.213,1.577-20.8.935-31.227l-1.678-27.273c-.323-5.251-.669-10.61-2.287-15.652-.589-1.834-1.614-5.54-3.29-6.711-1.659-1.16-6.4-1.211-8.451-1.308C235.476,548.083,235.584,561.535,237.145,568.28Z" transform="translate(-77.46 -129.461)" fill="#fbbebe"/><path d="M245.827,446.775a6.634,6.634,0,0,0-6.351.561,19.572,19.572,0,0,0-4.758,4.619c-4.253,5.192-8.756,11.149-8.125,17.831.237,2.505,1.2,4.876,1.846,7.307,2.852,10.659-.3,21.932.06,32.96.209,6.372,1.6,12.64,2.977,18.864.282,1.27.733,2.741,1.962,3.169a4.261,4.261,0,0,0,2.834-.439,22.6,22.6,0,0,1,20.684,2.607c2.282-1.218,1.427-5.069.915-7.6-1.52-7.535.543-15.307,3.05-22.574s5.505-14.523,5.921-22.2c.471-8.7-2.413-17.185-5.258-25.416a8.172,8.172,0,0,0-6.884-6.816C251.678,448.753,248.618,448.237,245.827,446.775Z" transform="translate(-75.463 -108.654)" fill="#2f2e41"/></svg>